<svg id="visual" viewBox="0 0 900 600" width="900" height="600" xmlns="http://www.w3.org/2000/svg" xmlns:xlink="http://www.w3.org/1999/xlink" version="1.1"><path d="M0 399L21.5 399.8C43 400.7 86 402.3 128.8 421.5C171.7 440.7 214.3 477.3 257.2 476.5C300 475.7 343 437.3 385.8 432.2C428.7 427 471.3 455 514.2 472.2C557 489.3 600 495.7 642.8 493.2C685.7 490.7 728.3 479.3 771.2 469.7C814 460 857 452 878.5 448L900 444L900 601L878.5 601C857 601 814 601 771.2 601C728.3 601 685.7 601 642.8 601C600 601 557 601 514.2 601C471.3 601 428.7 601 385.8 601C343 601 300 601 257.2 601C214.3 601 171.7 601 128.8 601C86 601 43 601 21.5 601L0 601Z" fill="#818CF8" stroke-linecap="round" stroke-linejoin="miter"></path></svg>